<svg version="1.1" xmlns="http://www.w3.org/2000/svg" xmlns:xlink="http://www.w3.org/1999/xlink" x="0px" y="0px"
	 width="100%" viewBox="0 0 50 50">
<g>
	<path fill="#fefefe" d="M47.238,0.001H2.76C1.236,0.001,0,1.235,0,2.76v44.478c0,1.526,1.236,2.761,2.76,2.761h23.946V30.638H20.19
		V23.09h6.516v-5.565c0-6.458,3.942-9.975,9.704-9.975c2.762,0,5.13,0.207,5.821,0.296v6.75l-3.996,0.001
		c-3.133,0-3.737,1.49-3.737,3.673v4.817h7.475l-0.979,7.547h-6.497v19.363h12.74c1.525,0,2.763-1.238,2.763-2.76V2.758
		C49.999,1.235,48.764,0.001,47.238,0.001z"/>
</g>
</svg>
