<svg version="1.1" xmlns="http://www.w3.org/2000/svg" xmlns:xlink="http://www.w3.org/1999/xlink" x="0px" y="0px"
	 width="100%" viewBox="0 0 50 50">
<path fill="#FEFEFE" d="M49.132,19.617l-0.017-0.124c0-0.002,0-0.002,0-0.006c0-0.001,0-0.003-0.002-0.005l-0.057-0.466
	c-0.011-0.095-0.024-0.203-0.039-0.325l-0.011-0.097l-0.024,0.004c-0.591-3.364-2.216-6.556-4.733-9.281
	c-2.503-2.711-5.757-4.854-9.407-6.192c-3.129-1.147-6.448-1.73-9.865-1.73c-4.615,0-9.097,1.087-12.96,3.139
	C4.567,8.491,0.172,15.769,0.82,23.072c0.338,3.777,1.817,7.373,4.283,10.4c2.32,2.85,5.458,5.148,9.076,6.648
	c2.222,0.92,4.423,1.355,6.75,1.818l0.272,0.051c0.642,0.129,0.813,0.303,0.858,0.373c0.083,0.125,0.04,0.381,0.006,0.52
	c-0.029,0.127-0.061,0.256-0.092,0.385c-0.25,1.018-0.509,2.072-0.305,3.234c0.232,1.338,1.067,2.104,2.287,2.104
	c1.313,0,2.811-0.883,3.8-1.465l0.131-0.076c2.36-1.387,4.585-2.951,6.258-4.158c3.665-2.641,7.813-5.637,10.926-9.51
	c2.734-3.408,4.207-7.661,4.172-11.921v-0.051C49.235,20.821,49.199,20.218,49.132,19.617z M15.856,27.01h-4.181
	c-0.633,0-1.145-0.512-1.145-1.143v-8.78c0-0.633,0.512-1.145,1.145-1.145c0.63,0,1.143,0.512,1.143,1.145v7.635h3.038
	c0.634,0,1.146,0.513,1.146,1.146C17.002,26.498,16.49,27.01,15.856,27.01z M20.221,25.834c0,0.633-0.513,1.146-1.145,1.146
	c-0.633,0-1.145-0.514-1.145-1.146v-8.778c0-0.632,0.512-1.144,1.145-1.144c0.632,0,1.145,0.512,1.145,1.144V25.834z M30.566,25.834
	c0,0.498-0.319,0.936-0.791,1.09c-0.116,0.037-0.235,0.057-0.354,0.057c-0.359,0-0.707-0.172-0.927-0.475l-4.123-5.674v5.002
	c0,0.633-0.511,1.146-1.143,1.146c-0.632,0-1.144-0.514-1.144-1.146v-8.528c0-0.494,0.32-0.935,0.79-1.088
	c0.472-0.152,0.989,0.015,1.28,0.418l4.121,5.676v-5.256c0-0.632,0.514-1.144,1.146-1.144c0.634,0,1.145,0.512,1.145,1.144V25.834z
	 M38.906,26.801h-5.663c-0.635,0-1.146-0.514-1.146-1.146v-4.389v-4.392c0-0.63,0.512-1.144,1.146-1.144h5.487
	c0.631,0,1.145,0.514,1.145,1.144c0,0.635-0.514,1.146-1.145,1.146h-4.342v2.101h3.523c0.632,0,1.146,0.512,1.146,1.145
	s-0.514,1.146-1.146,1.146h-3.523v2.1h4.518c0.633,0,1.146,0.512,1.146,1.144C40.052,26.287,39.539,26.801,38.906,26.801z"/>
</svg>
