<svg version="1.1" xmlns="http://www.w3.org/2000/svg" xmlns:xlink="http://www.w3.org/1999/xlink" x="0px" y="0px"
	 width="100%" viewBox="0 0 50 50">
	<g id="Group-15" transform="translate(-273.000000, -4308.000000)">
		<g transform="translate(0.000000, 4146.000000)">
			<path id="instagram-_x5B__x23_167_x5D_" fill="#FFF" d="M288.11,163.072c-3.906,0.156-7.344,1.094-10.156,3.906
				s-3.75,6.25-3.906,10.156c-0.156,2.5-0.781,20.781,1.094,25.625c1.25,3.281,3.75,5.781,7.031,7.031
				c1.563,0.625,3.281,0.938,5.781,1.094c21.406,0.938,29.375,0.469,32.813-8.125c0.625-1.563,0.938-3.281,1.094-5.781
				c0.938-21.562-0.156-26.25-3.906-29.843C315.142,164.009,311.704,161.978,288.11,163.072 M288.267,206.509
				c-2.344-0.156-3.594-0.469-4.531-0.781c-2.188-0.781-3.75-2.5-4.531-4.531c-1.406-3.594-0.938-21.093-0.781-23.906
				s0.625-5.313,2.656-7.188c2.344-2.344,5.469-3.594,26.719-2.656c2.813,0.156,5.313,0.625,7.188,2.656
				c2.344,2.344,3.594,5.469,2.656,26.718c-0.156,2.344-0.469,3.594-0.781,4.531C314.673,206.665,309.673,207.446,288.267,206.509
				 M307.954,174.166c0,1.563,1.25,2.813,2.969,2.813c1.563,0,2.969-1.25,2.969-2.813s-1.25-2.813-2.969-2.813
				C309.36,171.197,307.954,172.603,307.954,174.166 M285.61,186.978c0,6.875,5.469,12.343,12.344,12.343
				s12.344-5.469,12.344-12.343c0-6.875-5.469-12.344-12.344-12.344S285.61,180.103,285.61,186.978 M289.985,186.978
				c0-4.375,3.594-7.969,7.969-7.969s7.969,3.594,7.969,7.969c0,4.375-3.594,7.968-7.969,7.968S289.985,191.353,289.985,186.978"/>
		</g>
	</g>
</svg>
